# xmcd
#
# Track frame offsets: 
#        150
#        33420
#        45132
#        70475
#        96045
#        114050
#        145197
#        163767
#        185022
#        207690
#        243785
#        283255
#        290850
#
# Disc length: 4261 seconds
#
# Revision: 4
# Processed by: cddbd v1.5.2PL0 Copyright (c) Steve Scherf et al.
# Submitted via: ExactAudioCopy v0.95a4
#
DISCID=c310a30d
DTITLE=Schwoiﬂfuaﬂ - ...auf dr Stroﬂ
DYEAR=1998
DGENRE=Rock
TTITLE0=Paule Popstar
TTITLE1=Wammer Jammer
TTITLE2=Dr t‰gliche Wahn
TTITLE3=Oiner isch emmr dr Arsch
TTITLE4=Die gesunde Familie
TTITLE5=Juze Donauried
TTITLE6=Onser Zoicha
TTITLE7=Schduddgardr Drommeln
TTITLE8=Hass auf d'Schual
TTITLE9=Riedel's on the train
TTITLE10=Dibenga ‰d night
TTITLE11=Br¸no und Cedes
TTITLE12=Dr‰glacha Blues
EXTD=Year: 1998
EXTT0=
EXTT1=
EXTT2=
EXTT3=
EXTT4=
EXTT5=
EXTT6=
EXTT7=
EXTT8=
EXTT9=
EXTT10=
EXTT11=
EXTT12=
PLAYORDER=
